<svg width="20" height="17" viewBox="0 0 20 17" fill="none" xmlns="http://www.w3.org/2000/svg">
<g clip-path="url(#clip0_22_2)">
<path d="M5.13668 7.82723C6.57194 7.82723 8.00721 7.82723 9.44247 7.82723C9.74617 7.82723 10.0502 7.83318 10.3533 7.8201C10.5116 7.81327 10.6669 7.84121 10.8252 7.83021C10.9934 7.81832 11.1631 7.82753 11.3322 7.82753H12.8417C13.0421 7.82753 13.036 7.82516 13.1051 7.64203C13.2618 7.15333 13.5592 6.72051 13.9609 6.39665C14.3625 6.07278 14.8509 5.87195 15.3662 5.81878C16.0045 5.7355 16.6519 5.88042 17.1919 6.22746C17.7319 6.57451 18.129 7.10089 18.3118 7.71189C18.3169 7.74782 18.3361 7.78029 18.3654 7.8022C18.3946 7.8241 18.4314 7.83364 18.4677 7.82872C18.9255 7.82545 19.3833 7.83051 19.8411 7.82546C19.9573 7.82546 20.0021 7.85786 20 7.97767C19.9938 8.32866 19.9938 8.67965 20 9.03065C20.0021 9.15224 19.9546 9.18286 19.8402 9.18167C19.4031 9.17691 18.9658 9.18435 18.5287 9.17751C18.4752 9.16826 18.4202 9.18037 18.3757 9.21118C18.3312 9.242 18.3009 9.28901 18.2914 9.34191C18.1129 9.88984 17.7621 10.367 17.2902 10.7036C16.8183 11.0402 16.25 11.2187 15.6684 11.213C15.097 11.2066 14.5421 11.0225 14.0822 10.6868C13.6223 10.3512 13.2807 9.88087 13.1057 9.34251C13.0962 9.28984 13.0661 9.24297 13.022 9.21201C12.9779 9.18104 12.9233 9.16844 12.8699 9.17692C8.67127 9.18009 4.47261 9.18098 0.273954 9.17959C0.232729 9.17743 0.191417 9.17743 0.150193 9.17959C0.0453563 9.19059 0.00600299 9.15491 0.00810573 9.04313C0.0153151 8.67599 0.0138131 8.30855 0.00810573 7.9411C0.00810573 7.84924 0.0309398 7.82397 0.125262 7.82427C1.79563 7.82764 3.46611 7.82862 5.13668 7.82723ZM17.0697 8.50624C17.0707 8.14731 16.9282 7.80258 16.6733 7.54723C16.4184 7.29188 16.0719 7.14663 15.7092 7.14318C15.3452 7.14369 14.996 7.28587 14.737 7.539C14.4781 7.79214 14.3301 8.13593 14.325 8.49613C14.3241 8.85534 14.4668 9.20034 14.7218 9.45589C14.9769 9.71145 15.3237 9.85685 15.6867 9.86038C15.8675 9.86199 16.0468 9.82817 16.2144 9.76089C16.3819 9.69361 16.5344 9.59418 16.6629 9.46834C16.7915 9.3425 16.8936 9.19273 16.9634 9.02767C17.0332 8.8626 17.0693 8.68548 17.0697 8.50653V8.50624Z" fill="white"/>
<path d="M15.6281 14.9639C14.2343 14.9639 12.8402 14.9657 11.4464 14.9615C11.3971 14.954 11.3468 14.9659 11.3062 14.9946C11.2656 15.0233 11.238 15.0666 11.2292 15.1152C11.091 15.5674 10.8319 15.9742 10.4794 16.2928C10.1269 16.6114 9.69405 16.8298 9.22651 16.9251C8.77932 17.035 8.31078 17.0266 7.86789 16.9008C7.42501 16.7749 7.02336 16.536 6.70323 16.208C6.38141 15.9011 6.14571 15.5166 6.01924 15.0923C6.01574 15.0718 6.00819 15.0521 5.99701 15.0345C5.98584 15.0168 5.97125 15.0015 5.95409 14.9894C5.93693 14.9774 5.91754 14.9688 5.89701 14.9641C5.87649 14.9595 5.85525 14.9589 5.8345 14.9624C4.63033 14.965 3.42617 14.9655 2.222 14.9639C1.53351 14.9639 0.844712 14.9618 0.156217 14.9657C0.0471749 14.9657 0.00602042 14.941 0.00782277 14.823C0.0147317 14.4558 0.0120302 14.0884 0.00422006 13.7212C0.00181694 13.613 0.0618912 13.6124 0.136388 13.6124H3.0685C3.97898 13.6124 4.88947 13.6106 5.79995 13.6151C5.85137 13.6233 5.90402 13.6115 5.94682 13.5821C5.98961 13.5527 6.01924 13.5081 6.02945 13.4575C6.17852 12.9712 6.46687 12.538 6.85957 12.2104C7.25228 11.8829 7.73251 11.675 8.24213 11.612C8.63274 11.5488 9.03276 11.5742 9.412 11.6863C9.79125 11.7984 10.1398 11.9943 10.4314 12.2592C10.8142 12.5861 11.094 13.0149 11.2376 13.4947C11.2716 13.6038 11.3407 13.6136 11.4338 13.6136C12.2174 13.6122 13.0009 13.6122 13.7843 13.6136H19.7477C20.0261 13.6136 19.9973 13.6011 19.9976 13.855C19.9976 14.1571 19.9976 14.4591 19.9976 14.7611C19.9976 14.9651 19.9976 14.9651 19.7972 14.9651L15.6281 14.9639ZM8.61611 15.645C8.98064 15.6481 9.3315 15.5078 9.59165 15.2551C9.8518 15.0024 9.99997 14.6578 10.0036 14.2971C10.0027 13.9385 9.85985 13.5946 9.60578 13.339C9.35171 13.0834 9.00659 12.9364 8.64435 12.9296C8.28177 12.9259 7.93231 13.0637 7.6717 13.3132C7.4111 13.5627 7.26032 13.9038 7.25204 14.2626C7.24886 14.4423 7.28173 14.6208 7.34874 14.7878C7.41576 14.9548 7.5156 15.107 7.64247 15.2356C7.76933 15.3642 7.92072 15.4666 8.08785 15.5368C8.25498 15.6071 8.43453 15.6439 8.61611 15.645Z" fill="white"/>
<path d="M13.9582 3.38093H8.58876C8.41153 3.38093 8.234 3.38658 8.05708 3.37915C8.03691 3.37629 8.01638 3.37741 7.99665 3.38243C7.97692 3.38745 7.95839 3.39628 7.94212 3.4084C7.92585 3.42053 7.91215 3.43572 7.90183 3.4531C7.8915 3.47047 7.88475 3.4897 7.88195 3.50966C7.71343 4.05636 7.37286 4.53548 6.90988 4.87717C6.51397 5.17553 6.04197 5.35896 5.54671 5.40694C5.06009 5.46081 4.56795 5.37894 4.12586 5.17059C3.78089 5.01595 3.47299 4.79065 3.22248 4.50957C2.97196 4.22849 2.78454 3.89802 2.67257 3.53998C2.66826 3.51402 2.65876 3.48918 2.64465 3.46689C2.63053 3.44459 2.61207 3.42531 2.59035 3.41015C2.56863 3.39498 2.54408 3.38424 2.51812 3.37857C2.49217 3.37289 2.46533 3.37238 2.43917 3.37707C1.67227 3.38272 0.905076 3.37707 0.137879 3.38301C0.021327 3.38301 0.00510488 3.34824 0.00630645 3.24567C0.0107122 2.86634 0.00861061 2.4869 -5.81349e-07 2.10736C-0.00210331 2.0152 0.0510669 2.04226 0.0940227 2.04226C0.873536 2.04226 1.65305 2.03899 2.43226 2.04612C2.48721 2.05494 2.54346 2.04201 2.58887 2.01014C2.63428 1.97827 2.66521 1.93002 2.67498 1.87578C2.83068 1.37619 3.13245 0.933458 3.54218 0.603458C3.95192 0.273459 4.45126 0.0709871 4.97717 0.0216059C5.55607 -0.0551433 6.14403 0.06734 6.64254 0.368536C7.22775 0.700749 7.66509 1.23887 7.86753 1.87578C7.87805 1.93062 7.90993 1.97918 7.95628 2.01098C8.00264 2.04279 8.05976 2.0553 8.11535 2.04582C11.992 2.04226 15.8686 2.04136 19.7453 2.04315C19.7823 2.04528 19.8194 2.04528 19.8564 2.04315C19.9652 2.03066 20.0006 2.07674 19.9991 2.18317C19.9943 2.54229 19.9943 2.90141 19.9991 3.26053C19.9991 3.35804 19.9691 3.38361 19.8711 3.38331C18.531 3.37994 17.1908 3.37905 15.8507 3.38063L13.9582 3.38093ZM6.64644 2.71917C6.64463 2.35617 6.49817 2.00853 6.23889 1.75176C5.97961 1.49499 5.62844 1.34983 5.26164 1.3478C4.89884 1.35265 4.55264 1.49903 4.29828 1.7551C4.04393 2.01117 3.90197 2.35624 3.90327 2.71532C3.90232 2.89417 3.93715 3.07144 4.00575 3.23692C4.07436 3.40239 4.17538 3.55279 4.30299 3.67944C4.4306 3.8061 4.58229 3.90651 4.7493 3.97487C4.9163 4.04323 5.09533 4.0782 5.27606 4.07777C5.63851 4.07329 5.98481 3.92864 6.2409 3.67475C6.49699 3.42087 6.64255 3.07789 6.64644 2.71917Z" fill="white"/>
</g>
<defs>
<clipPath id="clip0_22_2">
<rect width="20" height="17" fill="white"/>
</clipPath>
</defs>
</svg>
